<?xml version="1.0" encoding="UTF-8" standalone="no"?>
<!-- Created with Inkscape (http://www.inkscape.org/) -->

<svg
   version="1.1"
   id="svg1"
   width="443.065"
   height="399.53101"
   viewBox="0 0 443.06501 399.53101"
   sodipodi:docname="heart_blue.svg"
   inkscape:version="1.3.2 (091e20e, 2023-11-25, custom)"
   xmlns:inkscape="http://www.inkscape.org/namespaces/inkscape"
   xmlns:sodipodi="http://sodipodi.sourceforge.net/DTD/sodipodi-0.dtd"
   xmlns="http://www.w3.org/2000/svg"
   xmlns:svg="http://www.w3.org/2000/svg">
  <defs
     id="defs1" />
  <sodipodi:namedview
     id="namedview1"
     pagecolor="#ffffff"
     bordercolor="#000000"
     borderopacity="0.25"
     inkscape:showpageshadow="2"
     inkscape:pageopacity="0.0"
     inkscape:pagecheckerboard="0"
     inkscape:deskcolor="#d1d1d1"
     showgrid="false"
     inkscape:zoom="0.59545897"
     inkscape:cx="352.66914"
     inkscape:cy="424.88234"
     inkscape:window-width="1077"
     inkscape:window-height="1000"
     inkscape:window-x="834"
     inkscape:window-y="0"
     inkscape:window-maximized="0"
     inkscape:current-layer="g1" />
  <g
     inkscape:groupmode="layer"
     inkscape:label="Image"
     id="g1"
     transform="translate(-4.0721636,-6.3840265)">
    <path
       style="display:inline;fill:#0000ff;fill-opacity:1"
       d="M 205.64992,388.07906 C 184.21108,372.03846 158.97875,351.48043 140.17739,334.73535 107.83137,305.92697 59.562585,254.42461 42.313545,230.31552 20.503435,199.8314 9.1102941,164.08476 9.1102941,126.13839 c 0,-19.06764 2.0194199,-30.88368 7.8400309,-45.8736 13.47583,-34.70459 40.84234,-58.48058 76.82664,-66.746911 12.353485,-2.83784 39.163605,-2.78482 53.333325,0.10549 28.52805,5.819081 56.12042,23.896911 70.83242,46.407611 3.44665,5.27369 6.66085,10.05003 7.14267,10.61408 0.48181,0.56406 2.85358,-2.02633 5.2706,-5.75642 10.1293,-15.63217 28.04523,-31.33099 46.11123,-40.40494 19.6955,-9.892391 38.92268,-13.752291 61.87609,-12.421771 18.61763,1.0792 28.79857,3.665201 44.10033,11.201671 10.61541,5.22834 14.6255,8.19143 24.76255,18.29727 24.70591,24.62985 36.75699,55.65371 34.75473,89.47127 -1.94168,32.79421 -19.87472,80.71393 -42.98125,114.8522 -27.2227,40.21962 -83.33236,94.31818 -136.66274,131.76442 -16.67524,11.70862 -35.52319,23.30409 -37.87982,23.30409 -0.86949,0 -9.32373,-5.79321 -18.78718,-12.87379 z"
       id="path1" />
  </g>
</svg>
